<?xml version="1.0" standalone="no"?>
<!DOCTYPE svg PUBLIC "-//W3C//DTD SVG 20010904//EN"
 "http://www.w3.org/TR/2001/REC-SVG-20010904/DTD/svg10.dtd">
<svg version="1.0" xmlns="http://www.w3.org/2000/svg"
 width="700.000000pt" height="700.000000pt" viewBox="0 0 700.000000 700.000000"
 preserveAspectRatio="xMidYMid meet">
<metadata>
Created by potrace 1.14, written by Peter Selinger 2001-2017
</metadata>
<g transform="translate(0.000000,700.000000) scale(0.100000,-0.100000)"
fill="#000000" stroke="none">
<path d="M1637 6404 c-213 -40 -396 -216 -454 -436 -15 -58 -16 -260 -16
-2468 0 -2243 2 -2409 18 -2470 29 -110 73 -188 150 -266 78 -79 146 -121 250
-156 l70 -23 1845 0 c1756 1 1848 1 1905 19 200 61 359 225 411 426 16 60 17
243 17 2470 0 2188 -1 2411 -16 2467 -53 200 -199 357 -397 424 l-65 22 -1825
2 c-1432 1 -1840 -1 -1893 -11z"/>
</g>
</svg>
