<?xml version="1.0" standalone="no"?>
<!DOCTYPE svg PUBLIC "-//W3C//DTD SVG 20010904//EN"
 "http://www.w3.org/TR/2001/REC-SVG-20010904/DTD/svg10.dtd">
<svg version="1.0" xmlns="http://www.w3.org/2000/svg"
 width="80.000000pt" height="80.000000pt" viewBox="0 0 80.000000 80.000000"
 preserveAspectRatio="xMidYMid meet">
<metadata>
Created by potrace 1.14, written by Peter Selinger 2001-2017
</metadata>
<g transform="translate(0.000000,80.000000) scale(0.100000,-0.100000)"
fill="#000000" stroke="none">
<path d="M140 760 c-19 -19 -20 -33 -20 -360 0 -327 1 -341 20 -360 19 -19 33
-20 260 -20 227 0 241 1 260 20 19 19 20 33 20 360 0 327 -1 341 -20 360 -19
19 -33 20 -260 20 -227 0 -241 -1 -260 -20z m508 -12 c9 -9 12 -99 12 -344 0
-289 -2 -335 -16 -348 -23 -24 -465 -24 -488 0 -14 13 -16 59 -16 348 0 245 3
335 12 344 17 17 479 17 496 0z"/>
<path d="M200 640 l0 -60 200 0 200 0 0 60 0 60 -200 0 -200 0 0 -60z m380 0
l0 -40 -180 0 -180 0 0 40 0 40 180 0 180 0 0 -40z"/>
<path d="M460 630 c0 -5 5 -10 10 -10 6 0 10 5 10 10 0 6 -4 10 -10 10 -5 0
-10 -4 -10 -10z"/>
<path d="M500 630 c0 -5 5 -10 10 -10 6 0 10 5 10 10 0 6 -4 10 -10 10 -5 0
-10 -4 -10 -10z"/>
<path d="M540 630 c0 -5 5 -10 10 -10 6 0 10 5 10 10 0 6 -4 10 -10 10 -5 0
-10 -4 -10 -10z"/>
<path d="M540 130 c0 -27 3 -30 30 -30 27 0 30 3 30 30 0 27 -3 30 -30 30 -27
0 -30 -3 -30 -30z"/>
</g>
</svg>
